<svg xmlns="http://www.w3.org/2000/svg" viewBox="0 0 128 154">
  <defs>
    <linearGradient id="trunk" x1="52" y1="79" x2="76" y2="137" gradientUnits="userSpaceOnUse">
      <stop stop-color="#9a6f45"/>
      <stop offset="1" stop-color="#5b3b29"/>
    </linearGradient>
    <radialGradient id="leafA" cx="32%" cy="24%" r="76%">
      <stop stop-color="#b7ee8f"/>
      <stop offset=".5" stop-color="#62b96b"/>
      <stop offset="1" stop-color="#2f774b"/>
    </radialGradient>
    <radialGradient id="leafB" cx="38%" cy="24%" r="78%">
      <stop stop-color="#91df83"/>
      <stop offset=".58" stop-color="#419557"/>
      <stop offset="1" stop-color="#24613f"/>
    </radialGradient>
  </defs>
  <ellipse cx="64" cy="133" rx="38" ry="12" fill="#102d20" opacity=".2"/>
  <path d="M58 76h13l5 55c-7 7-17 8-25 0Z" fill="url(#trunk)" stroke="#503521" stroke-width="1"/>
  <path d="M62 92 45 72M68 93l18-24M62 106 46 91M69 108l17-17" fill="none" stroke="#70492d" stroke-width="4" stroke-linecap="round"/>
  <circle cx="43" cy="69" r="24" fill="url(#leafB)" stroke="#2b6841" stroke-width="1.2"/>
  <circle cx="70" cy="48" r="30" fill="url(#leafA)" stroke="#347847" stroke-width="1.2"/>
  <circle cx="91" cy="72" r="25" fill="url(#leafB)" stroke="#2b6841" stroke-width="1.2"/>
  <circle cx="62" cy="79" r="30" fill="url(#leafA)" stroke="#327445" stroke-width="1.2"/>
  <path d="M48 58c11-12 28-15 42-7M39 76c8 8 17 10 27 8M72 79c10 5 19 4 28-2" fill="none" stroke="#d2f5aa" stroke-width="2.5" stroke-linecap="round" opacity=".36"/>
  <circle cx="55" cy="43" r="3" fill="#d9f7af" opacity=".42"/>
  <circle cx="83" cy="56" r="2.5" fill="#c7f0a4" opacity=".35"/>
</svg>
