<svg xmlns="http://www.w3.org/2000/svg" viewBox="0 0 128 154">
  <path d="M64 147 29 130 64 112 99 130Z" fill="#1e3a2a" opacity=".18"/>
  <path d="M57 82H72L75 130Q64 138 53 130Z" fill="#7b5739"/>
  <path d="M29 73C22 49 42 31 63 36 75 17 111 32 106 59 121 71 112 102 86 101 75 121 38 113 40 91 30 88 25 82 29 73Z" fill="#39864d"/>
  <path d="M31 68C31 45 52 34 68 44 78 27 106 40 101 63 111 76 101 94 82 92 72 108 45 103 48 84 38 84 31 78 31 68Z" fill="#5fb766"/>
  <path d="M45 54C55 43 76 42 86 56" fill="none" stroke="#a7dc7f" stroke-width="3" opacity=".42"/>
</svg>
