<svg xmlns="http://www.w3.org/2000/svg" viewBox="0 0 256 312">
  <ellipse cx="128" cy="286" rx="104" ry="25" fill="#3a2f1d" opacity=".17"/>
  <path d="M34 258 128 210 222 258 128 306Z" fill="#d9c8a2"/>
  <path d="M34 258 128 306 128 314 34 266Z" fill="#b89e72"/>
  <path d="M222 258 128 306 128 314 222 266Z" fill="#a78d63"/>
  <!-- main mass -->
  <path d="M58 246 128 210 198 246 128 282Z" fill="#f6ecd6"/>
  <path d="M58 246 128 282 128 196 58 160Z" fill="#e7d3a8"/>
  <path d="M198 246 128 282 128 196 198 160Z" fill="#d3b888"/>
  <!-- side turret (right) -->
  <path d="M176 232 206 216 226 226 196 242Z" fill="#efe2c4"/>
  <path d="M196 242 226 226 226 150 196 166Z" fill="#d3b888"/>
  <path d="M176 232 196 242 196 166 176 156Z" fill="#e7d3a8"/>
  <path d="M176 156 201 142 226 150 201 164Z" fill="#cf8a26"/>
  <path d="M201 142 201 120" stroke="#7c5430" stroke-width="2"/>
  <path d="M201 122 221 128 201 134Z" fill="#3fa86a"/>
  <!-- upper storey on main mass -->
  <path d="M82 198 128 177 174 198 128 219Z" fill="#f6ecd6"/>
  <path d="M82 198 128 219 128 156 82 135Z" fill="#e7d3a8"/>
  <path d="M174 198 128 219 128 156 174 135Z" fill="#d3b888"/>
  <!-- crowning roof -->
  <path d="M82 135 128 156 174 135 128 114Z" fill="#f0d9a6"/>
  <path d="M82 135 128 114 128 78 70 122Z" fill="#e6a93c"/>
  <path d="M174 135 128 114 128 78 186 122Z" fill="#cf8a26"/>
  <path d="M70 122 128 78 186 122 128 96Z" fill="#b5741d"/>
  <circle cx="128" cy="74" r="5" fill="#f3cd6a" stroke="#b5741d"/>
  <path d="M128 74 128 50" stroke="#7c5430" stroke-width="2"/>
  <path d="M128 52 150 58 128 64Z" fill="#f2b53c"/>
  <!-- emblem + windows -->
  <circle cx="128" cy="244" r="10" fill="#fff3d6" stroke="#cf8a26" stroke-width="2"/>
  <path d="M122 244 134 244M128 238 128 250" stroke="#cf8a26" stroke-width="1.6"/>
  <path d="M92 240 102 235 102 214 92 218Z" fill="#bfe3ea"/>
  <path d="M154 235 164 240 164 218 154 214Z" fill="#bfe3ea"/>
</svg>
