<svg xmlns="http://www.w3.org/2000/svg" viewBox="0 0 256 280">
  <ellipse cx="128" cy="254" rx="96" ry="23" fill="#3a2f1d" opacity=".16"/>
  <path d="M42 226 128 182 214 226 128 270Z" fill="#d9c8a2"/>
  <path d="M42 226 128 270 128 278 42 234Z" fill="#b89e72"/>
  <path d="M214 226 128 270 128 278 214 234Z" fill="#a78d63"/>
  <!-- lower storey -->
  <path d="M60 214 128 180 196 214 128 248Z" fill="#f6ecd6"/>
  <path d="M60 214 128 248 128 168 60 134Z" fill="#e7d3a8"/>
  <path d="M196 214 128 248 128 168 196 134Z" fill="#d3b888"/>
  <!-- setback upper storey -->
  <path d="M86 166 128 145 170 166 128 187Z" fill="#f6ecd6"/>
  <path d="M86 166 128 187 128 124 86 103Z" fill="#e7d3a8"/>
  <path d="M170 166 128 187 128 124 170 103Z" fill="#d3b888"/>
  <!-- roof on upper storey -->
  <path d="M86 103 128 124 170 103 128 82Z" fill="#f0d9a6"/>
  <path d="M86 103 128 82 128 50 74 90Z" fill="#e6a93c"/>
  <path d="M170 103 128 82 128 50 182 90Z" fill="#cf8a26"/>
  <path d="M74 90 128 50 182 90 128 66Z" fill="#b5741d"/>
  <!-- gold finial -->
  <circle cx="128" cy="46" r="5" fill="#f3cd6a" stroke="#b5741d"/>
  <!-- clock emblem on lower front -->
  <circle cx="128" cy="210" r="11" fill="#fff3d6" stroke="#cf8a26" stroke-width="2"/>
  <path d="M128 210 128 203M128 210 133 213" stroke="#7c5430" stroke-width="1.6" stroke-linecap="round"/>
  <!-- windows -->
  <path d="M92 206 102 201 102 184 92 188Z" fill="#bfe3ea"/>
  <path d="M154 201 164 206 164 188 154 184Z" fill="#bfe3ea"/>
</svg>
