<svg xmlns="http://www.w3.org/2000/svg" viewBox="0 0 256 232">
  <ellipse cx="128" cy="206" rx="92" ry="22" fill="#3a2f1d" opacity=".16"/>
  <!-- plinth -->
  <path d="M44 178 128 134 212 178 128 222Z" fill="#d9c8a2"/>
  <path d="M44 178 128 222 128 230 44 186Z" fill="#b89e72"/>
  <path d="M212 178 128 222 128 230 212 186Z" fill="#a78d63"/>
  <!-- single storey walls -->
  <path d="M64 168 128 138 192 168 128 198Z" fill="#f6ecd6"/>
  <path d="M64 168 128 198 128 150 64 120Z" fill="#e7d3a8"/>
  <path d="M192 168 128 198 128 150 192 120Z" fill="#d3b888"/>
  <!-- hip roof -->
  <path d="M64 120 128 150 192 120 128 96Z" fill="#f0d9a6"/>
  <path d="M64 120 128 96 128 70 56 104Z" fill="#e6a93c"/>
  <path d="M192 120 128 96 128 70 200 104Z" fill="#cf8a26"/>
  <path d="M56 104 128 70 200 104 128 84Z" fill="#b5741d"/>
  <!-- door + windows -->
  <path d="M120 192 128 188 136 192 136 168 120 164Z" fill="#9a6b3c"/>
  <path d="M96 176 104 172 104 158 96 162Z" fill="#bfe3ea"/>
  <path d="M152 172 160 176 160 162 152 158Z" fill="#bfe3ea"/>
</svg>
