<svg xmlns="http://www.w3.org/2000/svg" viewBox="0 0 256 232">
  <defs>
    <linearGradient id="glass" x1="72" y1="50" x2="196" y2="122" gradientUnits="userSpaceOnUse">
      <stop stop-color="#e0f6ff"/>
      <stop offset="1" stop-color="#76c8e8"/>
    </linearGradient>
  </defs>
  <path d="M128 214 42 170 128 126 214 170Z" fill="#29495f" opacity=".18"/>
  <path d="M54 86 128 48 202 86 128 124Z" fill="url(#glass)" stroke="#2d6782" stroke-width="1.5"/>
  <path d="M54 86 128 124 128 202 54 164Z" fill="#62aeca" stroke="#2b6178" stroke-width="1.2"/>
  <path d="M202 86 128 124 128 202 202 164Z" fill="#407e9c" stroke="#27536b" stroke-width="1.2"/>
  <path d="M76 104 116 124 116 176 76 156Z" fill="#e5fbff" opacity=".76"/>
  <path d="M140 124 184 102 184 154 140 176Z" fill="#d6f7ff" opacity=".62"/>
  <path d="M89 74 128 54 167 74 128 94Z" fill="#2c5f75"/>
  <path d="M96 72 128 56 160 72 128 88Z" fill="#6ee7f5" opacity=".54"/>
  <path d="M128 58 128 91" stroke="#bdf7ff" stroke-width="2" opacity=".65"/>
  <path d="M99 73 128 88 157 73" fill="none" stroke="#bdf7ff" stroke-width="1.8" opacity=".58"/>
</svg>
